<svg width="24" height="24" viewBox="0 0 24 24" fill="none" xmlns="http://www.w3.org/2000/svg">
<path d="M13 16V18H11V16H13ZM16 13H18V11H16V13ZM18 21H16V23H18V21ZM21 16V18H23V16H21ZM20 13C20.2652 13 20.5196 13.1054 20.7071 13.2929C20.8946 13.4804 21 13.7348 21 14H23C23 13.2044 22.6839 12.4413 22.1213 11.8787C21.5587 11.3161 20.7957 11 20 11V13ZM21 20C21 20.2652 20.8946 20.5196 20.7071 20.7071C20.5196 20.8946 20.2652 21 20 21V23C20.7957 23 21.5587 22.6839 22.1213 22.1213C22.6839 21.5587 23 20.7957 23 20H21ZM14 21C13.7348 21 13.4804 20.8946 13.2929 20.7071C13.1054 20.5196 13 20.2652 13 20H11C11 20.7957 11.3161 21.5587 11.8787 22.1213C12.4413 22.6839 13.2044 23 14 23V21ZM17.21 15.79C16.8352 16.1652 16.3267 16.3762 15.7964 16.3766C15.2661 16.377 14.7573 16.1667 14.382 15.792L14.38 15.79L10 11.41L8.57 12.85C8.849 13.356 8.997 13.923 9 14.5C9 15.1922 8.79473 15.8689 8.41015 16.4445C8.02556 17.0201 7.47894 17.4687 6.83939 17.7336C6.19985 17.9985 5.49612 18.0678 4.81719 17.9328C4.13825 17.7977 3.51461 17.4644 3.02513 16.9749C2.53564 16.4854 2.2023 15.8618 2.06725 15.1828C1.9322 14.5039 2.00152 13.8002 2.26642 13.1606C2.53133 12.5211 2.97993 11.9744 3.55551 11.5899C4.13108 11.2053 4.80777 11 5.5 11C6.07732 11.003 6.64464 11.1509 7.15 11.43L8.59 10L7.15 8.57C6.64464 8.84913 6.07732 8.99698 5.5 9C4.80777 9 4.13108 8.79473 3.55551 8.41015C2.97993 8.02556 2.53133 7.47894 2.26642 6.83939C2.00152 6.19985 1.9322 5.49612 2.06725 4.81719C2.2023 4.13825 2.53564 3.51461 3.02513 3.02513C3.51461 2.53564 4.13825 2.2023 4.81719 2.06725C5.49612 1.9322 6.19985 2.00152 6.83939 2.26642C7.47894 2.53133 8.02556 2.97993 8.41015 3.55551C8.79473 4.13108 9 4.80777 9 5.5C8.99698 6.07732 8.84913 6.64464 8.57 7.15L10 8.59L13.88 4.71C14.2548 4.33479 14.7633 4.1238 15.2936 4.12343C15.8239 4.12305 16.3327 4.33332 16.708 4.708L16.71 4.71L11.41 10L17.21 15.79ZM5.5 7C5.69705 6.99994 5.89216 6.96106 6.07418 6.88559C6.2562 6.81012 6.42158 6.69954 6.56087 6.56016C6.70016 6.42078 6.81063 6.25533 6.88597 6.07326C6.96132 5.89118 7.00007 5.69605 7 5.499C6.99994 5.30195 6.96106 5.10685 6.88559 4.92482C6.81012 4.7428 6.69954 4.57742 6.56016 4.43813C6.42078 4.29885 6.25533 4.18838 6.07326 4.11303C5.89118 4.03768 5.69605 3.99894 5.499 3.999C5.10104 3.99913 4.71944 4.15735 4.43813 4.43884C4.15683 4.72033 3.99887 5.10204 3.999 5.5C3.99913 5.89796 4.15735 6.27956 4.43884 6.56087C4.72033 6.84217 5.10204 7.00013 5.5 7ZM7 14.5C6.99994 14.303 6.96106 14.1078 6.88559 13.9258C6.81012 13.7438 6.69954 13.5784 6.56016 13.4391C6.42078 13.2998 6.25533 13.1894 6.07326 13.114C5.89118 13.0387 5.69605 12.9999 5.499 13C5.30195 13.0001 5.10685 13.0389 4.92482 13.1144C4.7428 13.1899 4.57742 13.3005 4.43813 13.4398C4.29885 13.5792 4.18838 13.7447 4.11303 13.9267C4.03768 14.1088 3.99894 14.304 3.999 14.501C3.99913 14.899 4.15735 15.2806 4.43884 15.5619C4.72033 15.8432 5.10204 16.0011 5.5 16.001C5.89796 16.0009 6.27956 15.8427 6.56087 15.5612C6.84217 15.2797 7.00013 14.898 7 14.5Z" fill="white"/>
</svg>
